<svg width="21" height="21" viewBox="0 0 21 21" fill="none" xmlns="http://www.w3.org/2000/svg">
<mask id="mask0_70_2130" style="mask-type:alpha" maskUnits="userSpaceOnUse" x="0" y="0" width="21" height="21">
<rect x="0.5" y="0.5" width="20" height="20" fill="#D9D9D9"/>
</mask>
<g mask="url(#mask0_70_2130)">
<path d="M10.5 18.8333C9.45833 18.8333 8.48264 18.6354 7.57292 18.2396C6.66319 17.8438 5.87153 17.309 5.19792 16.6354C4.52431 15.9618 3.98958 15.1701 3.59375 14.2604C3.19792 13.3507 3 12.375 3 11.3333C3 10.2917 3.19792 9.31598 3.59375 8.40626C3.98958 7.49654 4.52431 6.70487 5.19792 6.03126C5.87153 5.35765 6.66319 4.82293 7.57292 4.42709C8.48264 4.03126 9.45833 3.83334 10.5 3.83334C11.5417 3.83334 12.5174 4.03126 13.4271 4.42709C14.3368 4.82293 15.1285 5.35765 15.8021 6.03126C16.4757 6.70487 17.0104 7.49654 17.4063 8.40626C17.8021 9.31598 18 10.2917 18 11.3333C18 12.375 17.8021 13.3507 17.4063 14.2604C17.0104 15.1701 16.4757 15.9618 15.8021 16.6354C15.1285 17.309 14.3368 17.8438 13.4271 18.2396C12.5174 18.6354 11.5417 18.8333 10.5 18.8333ZM12.8333 14.8333L14 13.6667L11.3333 11V7.16668H9.66667V11.6667L12.8333 14.8333ZM5.16667 2.45834L6.33333 3.62501L2.79167 7.16668L1.625 6.00001L5.16667 2.45834ZM15.8333 2.45834L19.375 6.00001L18.2083 7.16668L14.6667 3.62501L15.8333 2.45834ZM10.5 17.1667C12.125 17.1667 13.5035 16.6007 14.6354 15.4688C15.7674 14.3368 16.3333 12.9583 16.3333 11.3333C16.3333 9.70834 15.7674 8.32987 14.6354 7.19793C13.5035 6.06598 12.125 5.50001 10.5 5.50001C8.875 5.50001 7.49653 6.06598 6.36458 7.19793C5.23264 8.32987 4.66667 9.70834 4.66667 11.3333C4.66667 12.9583 5.23264 14.3368 6.36458 15.4688C7.49653 16.6007 8.875 17.1667 10.5 17.1667Z" fill="#101010"/>
</g>
</svg>
