
<svg width="19" height="17" viewBox="0 0 19 17" fill="none" xmlns="http://www.w3.org/2000/svg">
<path d="M9.83301 16.8333C8.79134 16.8333 7.81565 16.6354 6.90592 16.2396C5.9962 15.8437 5.20454 15.309 4.53092 14.6354C3.85731 13.9618 3.32259 13.1701 2.92676 12.2604C2.53092 11.3507 2.33301 10.375 2.33301 9.33333C2.33301 8.29167 2.53092 7.31597 2.92676 6.40625C3.32259 5.49653 3.85731 4.70486 4.53092 4.03125C5.20454 3.35764 5.9962 2.82292 6.90592 2.42708C7.81565 2.03125 8.79134 1.83333 9.83301 1.83333C10.8747 1.83333 11.8504 2.03125 12.7601 2.42708C13.6698 2.82292 14.4615 3.35764 15.1351 4.03125C15.8087 4.70486 16.3434 5.49653 16.7393 6.40625C17.1351 7.31597 17.333 8.29167 17.333 9.33333C17.333 10.375 17.1351 11.3507 16.7393 12.2604C16.3434 13.1701 15.8087 13.9618 15.1351 14.6354C14.4615 15.309 13.6698 15.8437 12.7601 16.2396C11.8504 16.6354 10.8747 16.8333 9.83301 16.8333ZM12.1663 12.8333L13.333 11.6667L10.6663 9V5.16667H8.99967V9.66667L12.1663 12.8333ZM4.49967 0.458332L5.66634 1.625L2.12467 5.16667L0.958008 4L4.49967 0.458332ZM15.1663 0.458332L18.708 4L17.5413 5.16667L13.9997 1.625L15.1663 0.458332ZM9.83301 15.1667C11.458 15.1667 12.8365 14.6007 13.9684 13.4687C15.1004 12.3368 15.6663 10.9583 15.6663 9.33333C15.6663 7.70833 15.1004 6.32986 13.9684 5.19792C12.8365 4.06597 11.458 3.5 9.83301 3.5C8.20801 3.5 6.82954 4.06597 5.69759 5.19792C4.56565 6.32986 3.99967 7.70833 3.99967 9.33333C3.99967 10.9583 4.56565 12.3368 5.69759 13.4687C6.82954 14.6007 8.20801 15.1667 9.83301 15.1667Z" fill="#101010"/>
<mask id="mask0_70_2130" style="mask-type:alpha" maskUnits="userSpaceOnUse" x="0" y="0" width="21" height="21">
<rect x="0.5" y="0.5" width="20" height="20" fill="#D9D9D9"/>
</mask>
<g mask="url(#mask0_70_2130)">
 </g>
</svg>
