<?xml version="1.0" standalone="no"?>
<!DOCTYPE svg PUBLIC "-//W3C//DTD SVG 20010904//EN"
 "http://www.w3.org/TR/2001/REC-SVG-20010904/DTD/svg10.dtd">
<svg version="1.0" xmlns="http://www.w3.org/2000/svg"
 width="512.000000pt" height="512.000000pt" viewBox="0 0 512.000000 512.000000"
 preserveAspectRatio="xMidYMid meet">

<g transform="translate(0.000000,512.000000) scale(0.100000,-0.100000)"
fill="#000000" stroke="none">
<path d="M1749 4556 c-203 -59 -355 -256 -416 -536 -28 -132 -24 -345 10 -472
56 -212 185 -391 335 -465 73 -37 80 -38 182 -38 103 0 108 1 184 39 234 115
379 421 363 766 -16 328 -147 575 -362 677 -65 31 -88 36 -163 39 -53 2 -105
-2 -133 -10z m247 -181 c106 -62 182 -177 225 -340 31 -115 31 -346 0 -459
-34 -126 -84 -217 -156 -285 -105 -97 -209 -117 -323 -60 -183 91 -286 355
-261 668 14 163 71 311 157 403 76 82 139 109 238 104 57 -2 82 -9 120 -31z"/>
<path d="M3150 4556 c-72 -19 -137 -56 -200 -113 -227 -206 -306 -648 -177
-993 67 -178 168 -300 304 -367 75 -37 81 -38 183 -38 102 0 109 1 182 38 153
75 286 264 340 482 29 118 31 329 4 455 -71 337 -278 552 -531 549 -33 0 -80
-6 -105 -13z m233 -176 c137 -69 236 -257 256 -485 25 -298 -75 -564 -249
-659 -198 -108 -410 39 -491 340 -28 103 -31 334 -6 435 50 203 143 335 274
384 57 22 157 15 216 -15z"/>
<path d="M525 3513 c-131 -55 -217 -162 -259 -327 -74 -285 38 -697 240 -887
249 -232 566 -128 659 216 38 143 27 374 -26 535 -68 208 -209 386 -359 453
-62 28 -200 33 -255 10z m191 -160 c68 -23 168 -125 212 -215 77 -157 108
-302 99 -451 -12 -213 -105 -353 -232 -350 -134 2 -256 120 -331 323 -113 301
-69 604 101 693 39 21 90 21 151 0z"/>
<path d="M4363 3511 c-72 -27 -130 -69 -206 -151 -152 -164 -236 -418 -224
-680 9 -189 61 -318 169 -414 70 -64 142 -89 244 -84 69 3 91 8 156 40 86 43
179 134 237 232 42 70 97 215 119 311 23 101 22 329 -2 414 -41 151 -128 271
-231 321 -68 34 -188 38 -262 11z m193 -160 c120 -55 180 -233 154 -466 -17
-159 -62 -283 -146 -401 -164 -232 -401 -182 -460 97 -20 95 -13 263 15 373
48 183 151 333 266 388 69 32 114 35 171 9z"/>
<path d="M2442 2690 c-152 -21 -299 -78 -421 -163 -69 -48 -903 -833 -964
-907 -55 -66 -104 -174 -123 -270 -58 -288 100 -611 362 -740 184 -90 374 -86
759 20 281 77 415 94 625 79 133 -9 201 -22 470 -89 235 -59 310 -72 413 -71
424 4 740 466 601 879 -34 101 -66 154 -147 239 -129 136 -856 816 -919 860
-182 128 -444 193 -656 163z m304 -180 c98 -25 223 -84 290 -137 66 -53 827
-775 881 -837 89 -102 135 -253 115 -382 -23 -149 -92 -267 -202 -348 -99 -73
-155 -90 -290 -90 -107 -1 -131 4 -344 57 -343 87 -409 98 -611 98 -172 1
-271 -15 -554 -86 -256 -64 -325 -76 -440 -76 -188 0 -352 94 -446 255 -109
186 -77 439 77 600 76 79 803 761 863 809 65 52 190 112 285 136 105 28 270
28 376 1z"/>
</g>
</svg>
